<mxfile host="app.diagrams.net" modified="2024-03-30T22:00:37.582Z" agent="Mozilla/5.0 (Macintosh; Intel Mac OS X 10_15_7) AppleWebKit/537.36 (KHTML, like Gecko) Chrome/123.0.0.0 Safari/537.36" etag="BtJehVsQVqycFCcxDPpL" version="23.1.5" type="github">
  <diagram name="Page-1" id="m4-uEgCgD8C3NhUoCEL1">
    <mxGraphModel dx="1660" dy="727" grid="1" gridSize="10" guides="1" tooltips="1" connect="1" arrows="1" fold="1" page="1" pageScale="1" pageWidth="850" pageHeight="1100" math="0" shadow="0">
      <root>
        <mxCell id="0" />
        <mxCell id="1" parent="0" />
        <mxCell id="bB_mocnvcmT9NNA9GiqA-1" value="AWS Cloud" style="sketch=0;outlineConnect=0;gradientColor=none;html=1;whiteSpace=wrap;fontSize=12;fontStyle=0;shape=mxgraph.aws4.group;grIcon=mxgraph.aws4.group_aws_cloud;strokeColor=#AAB7B8;fillColor=none;verticalAlign=top;align=left;spacingLeft=30;fontColor=#AAB7B8;dashed=0;" vertex="1" parent="1">
          <mxGeometry x="-840" y="130" width="750" height="350" as="geometry" />
        </mxCell>
        <mxCell id="bB_mocnvcmT9NNA9GiqA-2" value="" style="sketch=0;points=[[0,0,0],[0.25,0,0],[0.5,0,0],[0.75,0,0],[1,0,0],[0,1,0],[0.25,1,0],[0.5,1,0],[0.75,1,0],[1,1,0],[0,0.25,0],[0,0.5,0],[0,0.75,0],[1,0.25,0],[1,0.5,0],[1,0.75,0]];outlineConnect=0;fontColor=#232F3E;fillColor=#8C4FFF;strokeColor=#ffffff;dashed=0;verticalLabelPosition=bottom;verticalAlign=top;align=center;html=1;fontSize=12;fontStyle=0;aspect=fixed;shape=mxgraph.aws4.resourceIcon;resIcon=mxgraph.aws4.redshift;" vertex="1" parent="1">
          <mxGeometry x="-454.5" y="160" width="78" height="78" as="geometry" />
        </mxCell>
        <mxCell id="bB_mocnvcmT9NNA9GiqA-4" style="edgeStyle=orthogonalEdgeStyle;rounded=0;orthogonalLoop=1;jettySize=auto;html=1;" edge="1" parent="1" source="bB_mocnvcmT9NNA9GiqA-3" target="bB_mocnvcmT9NNA9GiqA-2">
          <mxGeometry relative="1" as="geometry" />
        </mxCell>
        <mxCell id="bB_mocnvcmT9NNA9GiqA-13" value="Query table data load&#39;s using&lt;br&gt;Amazon Redshift API&amp;nbsp;" style="edgeLabel;html=1;align=center;verticalAlign=middle;resizable=0;points=[];" vertex="1" connectable="0" parent="bB_mocnvcmT9NNA9GiqA-4">
          <mxGeometry x="-0.2394" y="2" relative="1" as="geometry">
            <mxPoint x="1" as="offset" />
          </mxGeometry>
        </mxCell>
        <mxCell id="bB_mocnvcmT9NNA9GiqA-14" style="edgeStyle=orthogonalEdgeStyle;rounded=0;orthogonalLoop=1;jettySize=auto;html=1;" edge="1" parent="1" source="bB_mocnvcmT9NNA9GiqA-3" target="bB_mocnvcmT9NNA9GiqA-5">
          <mxGeometry relative="1" as="geometry" />
        </mxCell>
        <mxCell id="bB_mocnvcmT9NNA9GiqA-15" value="Load Status&lt;br&gt;Recordings" style="edgeLabel;html=1;align=center;verticalAlign=middle;resizable=0;points=[];" vertex="1" connectable="0" parent="bB_mocnvcmT9NNA9GiqA-14">
          <mxGeometry x="-0.1901" y="2" relative="1" as="geometry">
            <mxPoint as="offset" />
          </mxGeometry>
        </mxCell>
        <mxCell id="bB_mocnvcmT9NNA9GiqA-3" value="Lambda Function" style="outlineConnect=0;dashed=0;verticalLabelPosition=bottom;verticalAlign=top;align=center;html=1;shape=mxgraph.aws3.lambda_function;fillColor=#F58534;gradientColor=none;" vertex="1" parent="1">
          <mxGeometry x="-450" y="309" width="69" height="72" as="geometry" />
        </mxCell>
        <mxCell id="bB_mocnvcmT9NNA9GiqA-5" value="Amazon DynamoDB" style="sketch=0;points=[[0,0,0],[0.25,0,0],[0.5,0,0],[0.75,0,0],[1,0,0],[0,1,0],[0.25,1,0],[0.5,1,0],[0.75,1,0],[1,1,0],[0,0.25,0],[0,0.5,0],[0,0.75,0],[1,0.25,0],[1,0.5,0],[1,0.75,0]];outlineConnect=0;fontColor=#232F3E;fillColor=#C925D1;strokeColor=#ffffff;dashed=0;verticalLabelPosition=bottom;verticalAlign=top;align=center;html=1;fontSize=12;fontStyle=0;aspect=fixed;shape=mxgraph.aws4.resourceIcon;resIcon=mxgraph.aws4.dynamodb;" vertex="1" parent="1">
          <mxGeometry x="-250" y="306" width="78" height="78" as="geometry" />
        </mxCell>
        <mxCell id="bB_mocnvcmT9NNA9GiqA-11" style="edgeStyle=orthogonalEdgeStyle;rounded=0;orthogonalLoop=1;jettySize=auto;html=1;" edge="1" parent="1" source="bB_mocnvcmT9NNA9GiqA-6" target="bB_mocnvcmT9NNA9GiqA-3">
          <mxGeometry relative="1" as="geometry" />
        </mxCell>
        <mxCell id="bB_mocnvcmT9NNA9GiqA-12" value="Trigger based&lt;br&gt;on time" style="edgeLabel;html=1;align=center;verticalAlign=middle;resizable=0;points=[];" vertex="1" connectable="0" parent="bB_mocnvcmT9NNA9GiqA-11">
          <mxGeometry x="-0.0392" y="-5" relative="1" as="geometry">
            <mxPoint y="-5" as="offset" />
          </mxGeometry>
        </mxCell>
        <mxCell id="bB_mocnvcmT9NNA9GiqA-6" value="Amazon Eventbridge" style="sketch=0;points=[[0,0,0],[0.25,0,0],[0.5,0,0],[0.75,0,0],[1,0,0],[0,1,0],[0.25,1,0],[0.5,1,0],[0.75,1,0],[1,1,0],[0,0.25,0],[0,0.5,0],[0,0.75,0],[1,0.25,0],[1,0.5,0],[1,0.75,0]];outlineConnect=0;fontColor=#232F3E;fillColor=#E7157B;strokeColor=#ffffff;dashed=0;verticalLabelPosition=bottom;verticalAlign=top;align=center;html=1;fontSize=12;fontStyle=0;aspect=fixed;shape=mxgraph.aws4.resourceIcon;resIcon=mxgraph.aws4.eventbridge;" vertex="1" parent="1">
          <mxGeometry x="-650" y="306" width="78" height="78" as="geometry" />
        </mxCell>
        <mxCell id="bB_mocnvcmT9NNA9GiqA-10" style="edgeStyle=orthogonalEdgeStyle;rounded=0;orthogonalLoop=1;jettySize=auto;html=1;" edge="1" parent="1" source="bB_mocnvcmT9NNA9GiqA-8" target="bB_mocnvcmT9NNA9GiqA-6">
          <mxGeometry relative="1" as="geometry" />
        </mxCell>
        <mxCell id="bB_mocnvcmT9NNA9GiqA-8" value="Scheduled Event at &lt;br&gt;EventBridge on specific&lt;br&gt;time of the day&lt;br&gt;&lt;div&gt;&lt;br&gt;&lt;/div&gt;" style="sketch=0;outlineConnect=0;fontColor=#232F3E;gradientColor=none;fillColor=#E7157B;strokeColor=none;dashed=0;verticalLabelPosition=bottom;verticalAlign=top;align=center;html=1;fontSize=12;fontStyle=0;aspect=fixed;pointerEvents=1;shape=mxgraph.aws4.eventbridge_scheduler;" vertex="1" parent="1">
          <mxGeometry x="-780" y="306" width="78" height="78" as="geometry" />
        </mxCell>
        <mxCell id="bB_mocnvcmT9NNA9GiqA-16" value="" style="shape=image;html=1;verticalAlign=top;verticalLabelPosition=bottom;labelBackgroundColor=#ffffff;imageAspect=0;aspect=fixed;image=https://cdn0.iconfinder.com/data/icons/phosphor-thin-vol-3/256/number-circle-one-thin-128.png" vertex="1" parent="1">
          <mxGeometry x="-710" y="256" width="34" height="34" as="geometry" />
        </mxCell>
      </root>
    </mxGraphModel>
  </diagram>
</mxfile>
